<?xml version="1.0" encoding="UTF-8" standalone="no"?>
<!-- Created with Inkscape (http://www.inkscape.org/) -->

<svg
   xmlns:dc="http://purl.org/dc/elements/1.1/"
   xmlns:cc="http://creativecommons.org/ns#"
   xmlns:rdf="http://www.w3.org/1999/02/22-rdf-syntax-ns#"
   xmlns:svg="http://www.w3.org/2000/svg"
   xmlns="http://www.w3.org/2000/svg"
   xmlns:sodipodi="http://sodipodi.sourceforge.net/DTD/sodipodi-0.dtd"
   xmlns:inkscape="http://www.inkscape.org/namespaces/inkscape"
   width="135.58408mm"
   height="128.24559mm"
   viewBox="0 0 480.41602 454.41351"
   id="svg2"
   version="1.1"
   inkscape:version="0.91 r13725"
   sodipodi:docname="tilethief.svg">
  <defs
     id="defs4" />
  <sodipodi:namedview
     id="base"
     pagecolor="#ffffff"
     bordercolor="#666666"
     borderopacity="1.0"
     inkscape:pageopacity="0.0"
     inkscape:pageshadow="2"
     inkscape:zoom="1"
     inkscape:cx="174.86328"
     inkscape:cy="313.399"
     inkscape:document-units="px"
     inkscape:current-layer="layer1"
     showgrid="false"
     fit-margin-top="0"
     fit-margin-left="0"
     fit-margin-right="0"
     fit-margin-bottom="0"
     inkscape:window-width="1238"
     inkscape:window-height="755"
     inkscape:window-x="1876"
     inkscape:window-y="1223"
     inkscape:window-maximized="1" />
  <metadata
     id="metadata7">
    <rdf:RDF>
      <cc:Work
         rdf:about="">
        <dc:format>image/svg+xml</dc:format>
        <dc:type
           rdf:resource="http://purl.org/dc/dcmitype/StillImage" />
        <dc:title></dc:title>
      </cc:Work>
    </rdf:RDF>
  </metadata>
  <g
     inkscape:label="Ebene 1"
     inkscape:groupmode="layer"
     id="layer1"
     transform="translate(-15.185547,-578.30607)">
    <path
       style="fill:#ffffff"
       d="m 271.16016,25.947266 c -10.36594,-0.0934 -20.84511,1.741579 -31.20118,6.599609 -4.84516,7.53409 -7.77809,26.988059 -0.5332,32.255859 0.40472,-0.2595 0.77143,-0.482498 1.16992,-0.736328 l -0.0684,0.273438 -0.46679,1.873047 -0.46875,1.875 -0.46875,2.341797 0,2.34375 0,2.341796 c 0,23.42446 19.67684,42.164066 42.63281,42.164066 23.42446,0 42.16406,-18.739606 42.16406,-42.164066 0,-3.31072 -0.40665,-6.542173 -1.14648,-9.658203 -4.05243,1.71112 -3.13628,3.562067 -5.93555,7.529297 C 306.36681,79.977248 282.5685,67.899661 284.89449,57.550781 288.0465,43.526791 312.68337,54.14897 318.79098,55 c -1.58048,-2.9317 -3.50415,-5.655034 -5.6836,-8.146484 6.06369,0.73395 12.79238,1.747384 20.41016,3.021484 2.98181,-2.97239 4.44631,-3.603841 1.86719,-6.931641 -19.16625,-7.24779 -41.41956,-16.790593 -64.22461,-16.996093 z m 29.21679,31.486328 c -3.19128,-0.007 -5.81662,0.342882 -6.79297,1.107422 -0.47252,3.77278 7.3767,10.028511 21.1211,9.019531 2.46294,-1.89806 2.73904,-5.414459 1.3457,-7.386719 -3.46251,-1.72796 -10.35502,-2.729304 -15.67383,-2.740234 z m 21.36914,4.40625 c 0.30348,1.06974 0.60488,2.113838 0.90821,3.111328 -0.26355,-1.05214 -0.56731,-2.089058 -0.90821,-3.111328 z M 151.51562,119.62109 c -16.39712,0 -30.92019,8.90067 -38.41601,23.42383 L 92.488281,182.08203 58.048828,143.12305 a 4.3066996,4.3066996 0 1 0 -6.453125,5.70507 l 36.595703,41.39454 -6.011718,11.38476 c -1.405462,2.34245 -2.34375,5.15246 -2.34375,8.90039 0,10.30674 8.902484,19.67774 19.677734,19.67774 7.570408,0 12.870358,-3.02749 16.587888,-8.39063 l 2.12891,2.4082 0.0312,0.0332 c 2.82434,3.06431 6.61124,4.25174 9.85547,4.51367 l 0.1914,0.0156 15.66016,-0.13671 c 0.44224,0.0836 0.84408,0.1734 1.1875,0.26562 -0.18336,0.19337 -0.29976,0.34598 -0.54297,0.56836 L 128.9043,243.5 a 4.3063515,4.3063515 0 1 0 5.73828,6.42188 l 15.76367,-14.08594 0.0176,-0.0176 c 1.50781,-1.37882 2.69661,-2.71746 3.50976,-4.40234 0.81314,-1.68489 1.11633,-4.06082 0.22461,-6.03516 -0.8917,-1.97433 -2.49629,-3.10815 -4.02929,-3.83984 -1.53302,-0.73169 -3.16875,-1.15391 -5.00586,-1.4668 l -0.37891,-0.0644 -16.06836,0.14062 c -1.93989,-0.16821 -2.91961,-0.495 -4.07422,-1.74414 l -4.11523,-4.6543 24.4707,-47.28125 44.97461,0 -34.66797,86.20118 -10.30664,110.0957 -89.013671,0 c -14.054674,0 -25.298052,8.90132 -30.919921,21.08203 l -9.837891,25.29883 153.664063,0 c 11.24374,0 21.08229,-8.434 21.55078,-19.67774 l 10.30664,-96.50781 82.45313,170.99805 c 4.68489,9.8382 14.9931,16.39648 27.17382,16.39648 l 39.82032,0 -101.19336,-209.41406 31.38867,-78.70703 29.98437,36.54297 c 7.49583,9.83827 20.14428,16.39648 33.73047,16.39648 l 44.03711,0 c 30.27125,0.16793 30.04702,-45.85581 0,-45.91211 l -42.63086,0 -48.72461,-60.90234 c -9.83827,-11.24374 -24.82944,-18.74024 -41.22656,-18.74024 l -104.00391,0 z m 230.78711,29.38868 -1.49023,6.69531 9.43945,2.35156 1.71875,-6.89453 -9.66797,-2.15234 z m 11.99415,2.66992 -1.73243,6.95312 17.09375,4.25977 1.83985,-7.38281 -17.20117,-3.83008 z m 19.52734,4.34961 -1.85352,7.43945 17.09571,4.26172 1.96093,-7.87109 -17.20312,-3.83008 z m -33.53125,2.0039 -3.83008,17.19922 8.95313,2.23047 4.25976,-17.0918 -9.38281,-2.33789 z m 53.06055,2.34375 -1.97657,7.92969 17.09571,4.25977 2.08398,-8.35938 -17.20312,-3.83008 z m -41.36524,0.57032 -4.25976,17.09179 17.09375,4.25977 4.25976,-17.0918 -17.09375,-4.25976 z m 60.89258,3.77734 -2.09766,8.41797 17.09571,4.25976 2.20507,-8.8457 -17.20312,-3.83203 z m -41.48633,1.05859 -4.25976,17.0918 17.09375,4.26172 4.25976,-17.09375 -17.09375,-4.25977 z m 61.01367,3.29102 -2.21875,8.9043 17.09571,4.25976 2.32617,-9.33398 -17.20313,-3.83008 z m -41.60742,1.54492 -4.25976,17.09375 17.09375,4.25977 4.25976,-17.0918 -17.09375,-4.26172 z m 61.13672,2.80274 -2.33984,9.39257 3.8789,0.9668 2.125,-9.54297 -3.66406,-0.8164 z m -41.73047,2.03515 -4.25976,17.0918 17.09375,4.25976 4.25976,-17.09179 -17.09375,-4.25977 z m -74.26172,2.10352 -3.83008,17.19922 2.24415,0.55859 c 2.20575,-0.0626 4.42939,-0.14598 6.66015,-0.20898 l 3.82031,-15.33204 -8.89453,-2.21679 z m 93.66797,2.73242 -4.25976,17.0918 17.0957,4.25976 4.25976,-17.0918 -17.0957,-4.25976 z m -82.46094,0.0606 -3.66796,14.71875 c 6.07481,-0.0562 12.05639,0.42379 17.36523,3.16992 l 3.39648,-13.62891 -17.09375,-4.25976 z m 101.86719,4.77539 -4.25976,17.09179 4.36914,1.08985 3.82812,-17.20117 -3.9375,-0.98047 z m -82.46094,0.0605 -3.56445,14.30274 c 0.58743,0.3902 1.16381,0.81094 1.73047,1.26953 1.19677,0.88395 2.27051,1.8753 3.24805,2.93555 l 11.41992,2.8457 4.25976,-17.09375 -17.09375,-4.25977 z m 19.40625,4.83594 -4.25976,17.09375 17.09375,4.25977 4.25976,-17.0918 -17.09375,-4.26172 z m 19.40625,4.83789 -4.25976,17.0918 17.09375,4.25976 4.25976,-17.09179 -17.09375,-4.25977 z m 19.40625,4.83594 -4.25976,17.0918 17.09375,4.26171 4.25976,-17.09375 -17.09375,-4.25976 z m 19.40625,4.83594 -4.25976,17.09375 4.85547,1.21093 3.83008,-17.20117 -4.42579,-1.10351 z M 410.35938,206.75 c 3.65095,5.55714 4.96272,12.51344 4.0996,19.17578 l 0.0977,0.0234 4.25977,-17.0918 -8.45703,-2.10742 z m 10.76953,2.68359 -4.25977,17.0918 17.09375,4.25977 4.25977,-17.0918 -17.09375,-4.25977 z m 19.40625,4.83594 -4.25977,17.0918 17.09375,4.25976 4.25977,-17.09179 -17.09375,-4.25977 z m 19.40625,4.83594 -4.25977,17.0918 17.09375,4.26171 4.25977,-17.09375 -17.09375,-4.25976 z m 19.40625,4.83594 -4.25977,17.09375 5.34375,1.33203 3.83008,-17.20117 -4.91406,-1.22461 z m -63.05664,4.89843 -4.25977,17.0918 17.0957,4.25977 4.25977,-17.0918 -17.0957,-4.25977 z m -3.22266,3.08008 c -1.64605,4.76675 -4.508,9.05699 -8.50391,12.15039 l 5.15625,1.28516 3.34766,-13.43555 z m 22.62891,1.75586 -4.25977,17.0918 17.0957,4.25976 4.25977,-17.09179 -17.0957,-4.25977 z m 19.40625,4.83594 -4.25977,17.0918 17.0957,4.26171 4.25977,-17.09375 -17.0957,-4.25976 z m 19.4082,4.83594 -4.25977,17.09375 5.83008,1.45312 3.83008,-17.20117 -5.40039,-1.3457 z m -72.63477,2.51172 c -0.65822,0.37546 -1.33237,0.73059 -2.03906,1.04492 -2.99394,1.06097 -6.06194,1.69765 -9.17383,2.06445 l -2.875,11.5332 17.09375,4.25977 4.25977,-17.0918 -7.26563,-1.81054 z m 9.57813,2.38671 -4.25977,17.0918 17.09375,4.25977 4.25977,-17.0918 -17.09375,-4.25977 z m -46.49024,0.76758 c -0.77455,0.004 -1.54692,0.0169 -2.3164,0.041 -0.87376,0.0429 -1.766,0.0756 -2.64844,0.11523 l -0.92969,4.17383 7,1.74414 1.50977,-6.05469 c -0.87389,-0.0138 -1.74652,-0.0244 -2.61524,-0.0195 z m 5.05469,0.084 -1.63672,6.56836 17.09375,4.25976 2.67188,-10.7207 c -5.98364,0.44363 -12.09313,0.0665 -18.12891,-0.10742 z m 60.8418,3.98437 -4.25977,17.0918 17.09375,4.26172 4.25977,-17.09375 -17.09375,-4.25977 z m -72.3086,2.58985 -1.47851,6.63671 6.81836,1.51758 1.60156,-6.42383 -6.94141,-1.73046 z m 91.71485,2.24609 -4.25977,17.09375 17.09571,4.25976 4.25781,-17.09375 -17.09375,-4.25976 z m -82.46094,0.0605 -1.58594,6.36718 17.20118,3.83008 1.47851,-5.93555 -17.09375,-4.26171 z m 101.86719,4.77539 -4.25977,17.09375 6.32032,1.57422 3.83007,-17.19922 -5.89062,-1.46875 z m -82.46094,0.0625 -1.46484,5.87695 17.20117,3.83008 1.35742,-5.44727 -17.09375,-4.25976 z m 19.40625,4.83593 -1.34375,5.38868 17.20117,3.83007 1.23633,-4.95898 -17.09375,-4.25977 z m 19.40625,4.83594 -1.2207,4.90234 17.19922,3.83008 1.11523,-4.47265 -17.09375,-4.25977 z m 19.40625,4.83594 -1.09961,4.41406 17.20117,3.83008 0.99219,-3.98242 -17.09375,-4.26172 z m 19.40625,4.83789 -0.97851,3.92383 6.51367,1.45117 0.84375,-3.78516 -6.37891,-1.58984 z"
       transform="translate(0,552.36218)"
       id="path3495"
       inkscape:connector-curvature="0" />
  </g>
</svg>
